<svg width="132" height="20" viewBox="0 0 132 20" fill="none" xmlns="http://www.w3.org/2000/svg">
<path d="M10.9101 0.801085L13.1545 5.37152C13.3105 5.6894 13.6123 5.90966 13.9614 5.96056L18.9801 6.69351C19.8593 6.822 20.21 7.90745 19.5741 8.53028L15.9426 12.0878C15.6902 12.3352 15.5748 12.6919 15.6346 13.0411L16.4917 18.0645C16.642 18.9443 15.723 19.6151 14.9368 19.2001L10.4482 16.8285C10.136 16.6637 9.76285 16.6637 9.45071 16.8285L4.96203 19.2001C4.17587 19.6155 3.25688 18.9443 3.40714 18.0645L4.26428 13.0411C4.32406 12.6919 4.20866 12.3352 3.95629 12.0878L0.324755 8.53028C-0.311148 7.90704 0.0395948 6.82158 0.918735 6.69351L5.93747 5.96056C6.28656 5.90966 6.58832 5.6894 6.74439 5.37152L8.98873 0.801085C9.3814 0.000549704 10.5171 0.000549704 10.9101 0.801085Z" fill="#FBA229"/>
<path d="M38.8089 0.801085L41.0533 5.37152C41.2093 5.6894 41.5111 5.90966 41.8602 5.96056L46.8789 6.69351C47.7581 6.822 48.1088 7.90745 47.4729 8.53028L43.8414 12.0878C43.589 12.3352 43.4736 12.6919 43.5334 13.0411L44.3905 18.0645C44.5408 18.9443 43.6218 19.6151 42.8356 19.2001L38.347 16.8285C38.0348 16.6637 37.6617 16.6637 37.3495 16.8285L32.8608 19.2001C32.0747 19.6155 31.1557 18.9443 31.3059 18.0645L32.1631 13.0411C32.2229 12.6919 32.1075 12.3352 31.8551 12.0878L28.2236 8.53028C27.5877 7.90704 27.9384 6.82158 28.8175 6.69351L33.8363 5.96056C34.1854 5.90966 34.4871 5.6894 34.6432 5.37152L36.8875 0.801085C37.2802 0.000549704 38.4159 0.000549704 38.8089 0.801085Z" fill="#FBA229"/>
<path d="M66.7077 0.801085L68.9521 5.37152C69.1082 5.6894 69.4099 5.90966 69.759 5.96056L74.7777 6.69351C75.6569 6.822 76.0076 7.90745 75.3717 8.53028L71.7402 12.0878C71.4878 12.3352 71.3724 12.6919 71.4322 13.0411L72.2893 18.0645C72.4396 18.9443 71.5206 19.6151 70.7344 19.2001L66.2458 16.8285C65.9336 16.6637 65.5605 16.6637 65.2483 16.8285L60.7596 19.2001C59.9735 19.6155 59.0545 18.9443 59.2047 18.0645L60.0619 13.0411C60.1217 12.6919 60.0063 12.3352 59.7539 12.0878L56.1224 8.53028C55.4865 7.90704 55.8372 6.82158 56.7163 6.69351L61.7351 5.96056C62.0842 5.90966 62.3859 5.6894 62.542 5.37152L64.7863 0.801085C65.179 0.000549704 66.3147 0.000549704 66.7077 0.801085Z" fill="#FBA229"/>
<path d="M94.6067 0.801085L96.851 5.37152C97.0071 5.6894 97.3088 5.90966 97.6579 5.96056L102.677 6.69351C103.556 6.822 103.907 7.90745 103.271 8.53028L99.6391 12.0878C99.3867 12.3352 99.2713 12.6919 99.3311 13.0411L100.188 18.0645C100.339 18.9443 99.4195 19.6151 98.6334 19.2001L94.1447 16.8285C93.8325 16.6637 93.4594 16.6637 93.1472 16.8285L88.6586 19.2001C87.8724 19.6155 86.9534 18.9443 87.1037 18.0645L87.9608 13.0411C88.0206 12.6919 87.9052 12.3352 87.6528 12.0878L84.0213 8.53028C83.3854 7.90704 83.7361 6.82158 84.6153 6.69351L89.634 5.96056C89.9831 5.90966 90.2849 5.6894 90.4409 5.37152L92.6853 0.801085C93.0779 0.000549704 94.2136 0.000549704 94.6067 0.801085Z" fill="#FBA229"/>
<path d="M122.505 0.801085L124.75 5.37152C124.906 5.6894 125.208 5.90966 125.557 5.96056L130.575 6.69351C131.455 6.822 131.805 7.90745 131.169 8.53028L127.538 12.0878C127.286 12.3352 127.17 12.6919 127.23 13.0411L128.087 18.0645C128.237 18.9443 127.318 19.6151 126.532 19.2001L122.043 16.8285C121.731 16.6637 121.358 16.6637 121.046 16.8285L116.557 19.2001C115.771 19.6155 114.852 18.9443 115.002 18.0645L115.86 13.0411C115.919 12.6919 115.804 12.3352 115.552 12.0878L111.92 8.53028C111.284 7.90704 111.635 6.82158 112.514 6.69351L117.533 5.96056C117.882 5.90966 118.184 5.6894 118.34 5.37152L120.584 0.801085C120.977 0.000549704 122.112 0.000549704 122.505 0.801085Z" fill="#FBA229"/>
</svg>
